<?xml version="1.0" standalone="no"?>
<!DOCTYPE svg PUBLIC "-//W3C//DTD SVG 20010904//EN"
 "http://www.w3.org/TR/2001/REC-SVG-20010904/DTD/svg10.dtd">
<svg version="1.0" xmlns="http://www.w3.org/2000/svg"
 width="1024.000000pt" height="1536.000000pt" viewBox="0 0 1024.000000 1536.000000"
 preserveAspectRatio="xMidYMid meet">

<g transform="translate(0.000000,1536.000000) scale(0.100000,-0.100000)"
fill="#000000" stroke="none">
<path d="M9760 15320 l0 -40 50 0 50 0 0 -40 c0 -29 4 -40 15 -40 11 0 15 -11
15 -40 0 -36 -2 -40 -25 -40 -16 0 -25 -6 -25 -15 0 -11 11 -15 40 -15 l40 0
0 55 c0 30 5 55 10 55 6 0 10 -18 10 -40 0 -38 2 -40 30 -40 30 0 30 -1 30
-55 l0 -55 40 0 c29 0 40 4 40 15 0 11 11 15 40 15 22 0 40 5 40 10 0 6 18 10
40 10 l40 0 0 150 0 150 -240 0 -240 0 0 -40z"/>
<path d="M3705 15109 c-22 -5 -71 -14 -110 -21 -87 -14 -182 -58 -233 -107
-22 -21 -61 -49 -87 -62 -26 -13 -50 -29 -52 -36 -4 -11 -97 -83 -107 -83 -2
0 -1 12 2 28 l5 27 -29 -25 c-16 -14 -32 -29 -36 -35 -4 -5 -8 -6 -8 -1 0 19
-130 -164 -130 -184 0 -5 -9 -27 -20 -47 -11 -21 -20 -48 -20 -60 0 -14 -6
-23 -16 -23 -11 0 -14 -5 -10 -16 3 -9 9 -40 12 -69 7 -56 -7 -85 -39 -85 -12
0 -12 -6 3 -36 18 -34 17 -64 -1 -64 -14 0 -11 -20 6 -36 8 -9 15 -20 15 -25
0 -5 -7 -9 -15 -9 -9 0 -15 -9 -15 -25 0 -35 -19 -71 -44 -83 -21 -10 -20 -11
4 -12 14 -1 19 -4 13 -7 -7 -2 -13 -11 -13 -20 0 -8 -13 -33 -29 -56 -35 -51
-48 -97 -27 -97 10 0 16 -17 20 -57 13 -142 25 -221 40 -258 8 -22 22 -80 31
-130 8 -49 26 -121 39 -160 14 -38 37 -110 51 -160 27 -90 69 -175 86 -175 23
0 30 46 14 90 -9 25 -23 65 -30 90 -8 25 -14 41 -15 35 -1 -5 -10 17 -21 50
-18 55 -42 290 -32 308 2 4 9 5 14 1 5 -3 19 6 30 20 11 14 26 26 34 26 12 0
25 30 30 70 17 133 66 221 184 334 26 25 36 28 71 23 36 -5 43 -2 70 29 30 34
50 43 50 22 0 -6 10 -3 21 8 16 14 23 15 26 7 6 -18 23 -16 23 2 0 19 105 18
122 -2 8 -10 14 -10 24 -2 10 8 22 8 45 0 22 -8 36 -8 45 -1 7 6 14 7 16 2 1
-5 13 -12 25 -16 19 -6 22 -4 16 9 -5 15 -3 15 16 3 22 -13 32 -7 44 27 2 6 9
5 19 -2 12 -10 20 -7 43 17 21 22 34 28 52 24 16 -4 28 -1 36 9 10 13 28 16
97 13 96 -4 98 -4 160 -34 25 -11 65 -23 90 -25 65 -7 119 -23 170 -50 60 -32
133 -55 200 -63 30 -4 66 -11 79 -16 26 -9 94 0 86 12 -6 9 19 20 46 20 10 0
19 5 19 10 0 6 9 10 21 10 11 0 32 9 46 20 25 19 73 28 73 13 0 -5 15 -24 33
-43 19 -19 35 -39 36 -45 12 -57 25 -96 32 -101 5 -3 9 -12 9 -20 0 -8 9 -24
20 -36 22 -24 26 -48 10 -64 -7 -7 -3 -17 10 -32 24 -25 26 -36 5 -28 -13 4
-14 2 -5 -14 8 -16 8 -20 -4 -20 -15 0 -17 -43 -3 -57 4 -3 7 -15 7 -25 0 -11
7 -33 16 -50 9 -18 17 -54 19 -82 3 -76 15 -130 33 -144 13 -10 -6 -11 -103
-6 -107 6 -155 17 -141 32 3 3 -3 17 -14 32 -26 36 -69 48 -87 24 -12 -16 -14
-17 -32 0 -14 13 -28 16 -57 11 -29 -5 -35 -4 -24 4 12 9 9 11 -15 12 -16 1
-64 3 -105 5 -75 4 -124 -2 -255 -31 -77 -16 -117 -33 -109 -47 3 -4 1 -8 -5
-8 -12 0 -35 -43 -45 -82 -5 -21 -3 -28 9 -28 18 0 19 -11 3 -29 -11 -11 -9
-11 9 -2 44 22 46 10 2 -18 -24 -15 -60 -45 -78 -65 -24 -24 -44 -36 -62 -36
-49 0 -60 9 -53 45 5 29 2 35 -25 51 -17 10 -31 22 -31 26 0 4 -25 8 -55 8
-34 0 -55 4 -55 11 0 6 -6 9 -14 6 -8 -3 -16 2 -19 13 -3 10 -18 21 -36 25
-17 4 -29 10 -26 15 12 20 -43 38 -123 39 -45 1 -93 6 -107 11 -16 6 -26 6
-31 -1 -4 -7 -10 -6 -19 1 -10 8 -34 2 -97 -24 -46 -19 -78 -35 -73 -36 6 0
-5 -9 -23 -20 -18 -11 -37 -31 -44 -45 -6 -13 -30 -33 -53 -44 -49 -23 -85
-68 -61 -77 8 -3 21 -2 27 2 7 4 5 -3 -4 -16 -8 -12 -39 -34 -68 -49 -74 -37
-77 -55 -8 -47 41 5 50 4 37 -4 -10 -6 -18 -17 -18 -25 0 -15 17 -15 40 0 47
31 90 45 90 30 0 -3 -7 -17 -16 -31 -9 -13 -18 -48 -21 -76 -2 -28 -6 -54 -8
-59 -8 -12 17 -49 32 -49 7 0 13 -8 13 -17 0 -14 5 -12 28 9 15 14 35 28 44
31 10 4 15 12 12 20 -10 27 21 39 66 27 50 -13 50 -34 1 -61 -48 -26 -63 -43
-31 -36 22 5 23 5 8 -7 -20 -15 -23 -26 -7 -26 22 0 80 -33 76 -44 -5 -16 19
-37 36 -30 9 3 21 -3 29 -15 12 -17 19 -19 54 -11 53 13 53 13 47 -10 -3 -11
-1 -20 5 -20 12 0 -3 -55 -22 -79 -9 -12 -8 -13 6 -8 9 3 18 2 20 -4 2 -5 18
-7 36 -3 24 5 31 11 27 22 -8 22 14 43 39 37 12 -4 17 -3 11 2 -17 14 -16 33
2 40 27 10 54 43 47 55 -4 6 -3 8 4 4 13 -8 52 40 52 65 0 11 4 19 9 19 5 0 7
18 4 40 -4 28 0 47 11 65 12 18 15 36 11 56 -4 17 -2 29 3 29 6 0 15 12 20 28
9 25 9 24 16 -23 13 -97 -21 -252 -76 -345 -32 -52 -73 -83 -125 -94 -10 -1
-25 -6 -34 -10 -24 -11 -109 -11 -148 -1 -25 6 -32 5 -27 -3 12 -20 -99 -14
-174 8 -107 32 -173 110 -213 250 -22 77 -47 193 -48 221 l0 24 -16 -22 -15
-23 -17 21 c-15 18 -20 19 -69 9 -87 -19 -110 -63 -47 -93 19 -9 34 -22 33
-29 -2 -9 7 -12 26 -11 48 4 55 10 62 54 7 41 7 41 29 -48 45 -174 112 -303
183 -354 49 -34 91 -48 187 -60 86 -11 115 -28 115 -65 0 -17 7 -25 26 -30 22
-6 24 -10 18 -38 -3 -17 -9 -35 -12 -41 -4 -5 -7 -17 -7 -25 0 -8 -7 -15 -16
-15 -27 0 -65 -32 -83 -70 -14 -30 -15 -42 -6 -71 7 -19 10 -41 7 -48 -6 -15
7 -89 23 -131 12 -30 12 -30 28 -9 10 11 23 19 30 16 10 -3 10 -7 1 -18 -8
-10 -8 -14 0 -14 6 0 11 -5 11 -11 0 -5 -3 -8 -8 -5 -4 2 -7 -13 -7 -35 0 -26
-4 -39 -13 -39 -7 0 -10 -5 -7 -10 4 -6 10 -8 15 -5 4 3 10 -4 13 -15 7 -26
-14 -26 -37 -1 -18 20 -21 40 -10 84 4 17 2 27 -5 27 -6 0 -11 -7 -11 -16 0
-8 -5 -24 -10 -35 -9 -16 -14 -17 -32 -8 -18 10 -20 9 -15 -5 4 -9 1 -16 -6
-16 -7 -1 -1 -10 12 -20 21 -18 22 -20 4 -20 -34 0 -34 -13 -2 -42 25 -23 29
-31 19 -43 -10 -12 -10 -15 3 -15 25 0 35 -22 40 -84 3 -43 9 -61 20 -65 11
-4 14 -10 7 -20 -6 -10 -3 -19 8 -28 16 -13 16 -13 0 -11 -23 4 -86 -69 -94
-108 -6 -31 10 -95 40 -167 15 -33 15 -58 7 -194 -12 -180 -16 -190 -101 -238
-41 -23 -59 -41 -77 -77 -20 -40 -34 -53 -86 -79 -34 -17 -87 -52 -118 -79
-57 -50 -233 -164 -521 -339 -374 -228 -438 -272 -532 -366 -58 -58 -128 -115
-191 -156 -55 -35 -136 -91 -181 -124 -44 -33 -103 -76 -130 -95 -27 -19 -66
-61 -87 -92 -40 -60 -207 -467 -250 -609 -97 -319 -121 -575 -93 -996 26 -386
22 -550 -25 -993 -7 -66 -10 -335 -9 -722 1 -738 -5 -818 -70 -948 -53 -106
-51 -161 10 -251 23 -34 30 -55 29 -94 0 -27 -6 -61 -14 -75 -20 -35 -18 -87
4 -124 27 -44 30 -77 41 -396 15 -460 48 -815 111 -1210 41 -254 56 -324 85
-407 20 -55 25 -83 20 -120 -3 -26 -8 -91 -12 -143 l-6 -95 51 -102 c28 -56
51 -111 51 -123 0 -12 12 -56 26 -98 60 -179 148 -630 168 -868 8 -84 17 -157
21 -164 4 -6 19 -16 33 -21 20 -8 31 -6 52 9 27 21 89 19 91 -2 0 -6 4 -1 9
11 8 20 25 26 56 22 4 0 10 5 15 12 4 8 11 10 15 7 8 -9 -17 -98 -28 -98 -12
0 -9 -35 4 -48 9 -9 7 -12 -10 -12 -12 0 -22 5 -22 10 0 6 -7 10 -15 10 -11 0
-13 -8 -10 -32 4 -28 3 -29 -4 -8 l-8 25 -5 -25 c-5 -25 -5 -25 -7 3 0 15 -5
27 -11 27 -5 0 -10 9 -10 19 0 11 -4 22 -9 26 -15 9 0 -106 20 -153 14 -34 24
-44 50 -49 20 -4 34 -13 37 -25 3 -14 7 -16 12 -8 10 16 57 -63 66 -111 4 -19
13 -43 19 -54 7 -11 15 -32 19 -46 3 -15 14 -29 24 -31 16 -5 18 -14 15 -72
l-3 -66 257 1 c232 1 255 2 226 15 -18 8 -33 21 -33 29 0 8 -7 15 -15 15 -8 0
-15 -8 -15 -17 0 -14 -3 -14 -12 -5 -10 10 -10 15 1 22 12 7 13 11 1 25 -7 9
-19 14 -26 11 -17 -7 -33 21 -27 45 3 11 0 19 -6 19 -15 0 -14 77 1 84 11 5
11 7 0 12 -6 3 -12 14 -12 24 0 10 -6 21 -12 23 -10 4 -9 8 2 16 13 9 11 11
-6 11 -22 0 -34 17 -34 49 0 10 -9 30 -20 44 -12 15 -19 39 -19 59 l2 33 6
-35 c10 -54 19 -22 12 40 -5 41 -15 63 -36 88 -16 17 -35 32 -42 32 -7 0 -13
10 -13 23 0 12 -11 39 -25 59 -14 20 -25 41 -25 46 0 31 96 75 193 88 38 6 51
3 69 -12 22 -20 54 -87 78 -161 17 -54 35 -57 26 -5 -22 124 -21 127 18 150
40 24 44 43 22 97 -47 111 -106 670 -91 863 12 167 11 217 -8 245 -23 36 -21
67 8 118 31 54 32 100 4 180 -20 58 -21 68 -10 207 44 556 57 845 43 965 -7
56 -12 134 -12 172 0 39 -5 117 -11 175 -11 103 -11 107 15 182 32 95 33 123
1 183 -14 26 -24 52 -23 57 2 5 30 24 63 41 l60 32 -2 45 c0 25 -17 83 -36
130 -18 47 -51 157 -72 244 l-38 160 21 90 c21 88 27 131 52 406 25 271 79
595 96 577 1 -1 -6 -54 -18 -117 -26 -150 -28 -364 -4 -469 55 -241 110 -360
226 -484 27 -29 50 -58 50 -65 0 -7 -20 -60 -45 -117 -107 -246 -124 -306
-132 -480 -9 -192 26 -351 108 -490 l41 -70 -29 -85 c-28 -86 -67 -151 -133
-227 -67 -77 -130 -228 -130 -313 0 -79 21 -116 92 -159 41 -24 47 -41 23 -61
-8 -7 -22 -36 -30 -64 -17 -59 -9 -128 19 -171 19 -29 73 -65 97 -65 34 0 41
-25 25 -81 -9 -29 -16 -82 -16 -117 0 -70 -12 -115 -95 -372 -80 -246 -97
-319 -119 -515 -9 -77 22 -212 94 -420 47 -133 64 -203 80 -315 6 -47 17 -110
25 -140 7 -30 16 -95 20 -145 6 -76 5 -88 -7 -74 -7 8 -33 28 -58 44 -57 36
-126 108 -147 153 -9 20 -19 30 -21 24 -10 -31 114 -192 149 -192 27 0 219
-217 219 -248 0 -5 7 -15 16 -23 19 -16 64 -102 64 -124 0 -13 283 -15 2719
-15 2582 0 2720 1 2725 18 18 66 28 165 20 218 -11 78 -11 80 3 144 28 126 73
370 73 394 0 16 -6 26 -15 26 -8 0 -15 5 -15 12 0 9 -3 9 -11 1 -6 -6 -19 -9
-28 -6 -14 4 -14 3 -1 -6 12 -8 12 -13 2 -23 -9 -9 -12 -9 -12 1 0 7 -4 10 -9
6 -5 -3 -12 -1 -16 5 -3 5 -1 10 4 10 6 0 11 12 11 26 0 16 -5 24 -12 22 -14
-5 -38 35 -38 61 0 10 -3 21 -7 25 -8 7 -27 58 -50 131 -8 28 -19 55 -23 60
-4 6 -11 21 -15 35 -9 33 -123 268 -147 302 -10 14 -18 33 -18 42 0 9 -3 16
-8 16 -4 0 -16 17 -27 37 -23 44 -23 44 -75 103 -22 25 -40 48 -40 51 0 4 -9
9 -20 12 -12 3 -20 14 -20 25 0 11 -6 33 -14 49 -21 43 -34 75 -40 103 -3 14
-3 20 0 13 3 -7 11 -10 19 -7 7 3 16 0 20 -6 4 -6 16 -8 27 -4 21 6 25 5 121
-41 75 -35 86 -27 69 51 -21 101 19 139 129 124 92 -13 120 -21 259 -79 191
-78 280 -125 280 -146 0 -8 5 -15 10 -15 6 0 10 -13 10 -28 0 -39 6 -42 48
-28 32 11 38 19 44 52 4 21 35 185 68 364 94 509 103 547 139 584 54 55 64
134 35 256 l-17 68 42 84 c37 73 42 93 48 173 3 50 12 100 19 112 35 56 64
172 63 250 -1 43 6 105 14 138 20 75 62 357 79 530 16 163 15 760 -2 878 -10
70 -9 96 4 158 11 56 13 90 6 139 -7 45 -6 76 2 99 13 41 5 210 -13 261 -6 19
-27 60 -44 90 -29 49 -34 66 -39 150 -3 52 -10 118 -15 145 -5 28 -17 97 -26
155 -8 58 -20 137 -26 175 -25 160 -144 736 -193 925 -32 128 -89 302 -172
525 -87 236 -184 538 -199 621 -84 459 -114 580 -181 721 -42 88 -132 240
-177 298 -41 53 -189 229 -197 235 -4 3 -11 12 -16 21 -16 29 -98 123 -156
181 -72 71 -119 89 -342 135 -166 34 -173 36 -325 115 -86 45 -178 92 -204
105 -60 31 -544 196 -767 263 -58 17 -148 46 -200 65 -52 18 -115 39 -140 45
-25 7 -62 21 -82 31 -21 11 -66 26 -100 34 -37 8 -67 21 -73 31 -18 32 -77 94
-89 94 -30 1 -107 73 -131 123 -43 88 -86 266 -91 378 -2 56 -9 110 -15 122
-6 12 -33 43 -62 69 l-51 46 17 79 c12 58 37 322 37 405 0 3 10 4 23 1 l22 -5
-23 19 c-25 20 -28 70 -4 65 16 -3 15 4 -2 31 -10 16 -16 75 -20 212 -7 236
-12 308 -25 381 -6 32 -11 79 -11 106 0 43 2 48 23 48 31 0 85 35 98 64 9 19
8 34 -4 68 -11 29 -18 92 -21 198 -3 85 -9 189 -15 230 -6 41 -13 124 -14 183
-2 61 -8 112 -15 119 -8 8 -5 15 11 28 16 14 19 21 10 31 -7 9 -10 54 -9 124
2 88 -1 117 -16 147 -10 20 -24 41 -32 45 -7 4 -23 26 -34 49 -20 39 -126 164
-199 234 -247 237 -329 307 -410 348 -52 28 -220 62 -303 62 -62 0 -92 4 -109
16 -12 9 -77 25 -143 35 -98 15 -129 16 -170 7 -37 -9 -69 -9 -132 0 -91 13
-95 13 -151 1z m-110 -49 c-3 -5 -24 -14 -47 -20 -22 -7 -65 -23 -95 -36 -30
-14 -60 -23 -66 -21 -18 6 49 39 128 63 84 26 88 27 80 14z m-494 -307 c-16
-28 -38 -53 -45 -53 -12 0 -6 17 15 44 23 29 46 36 30 9z m-101 -83 c-31 -43
-39 -29 -9 15 13 19 25 30 27 25 2 -5 -6 -24 -18 -40z m110 15 c-7 -8 -17 -15
-23 -15 -5 0 -2 9 8 20 21 23 35 19 15 -5z m67 -247 c-3 -8 -6 -5 -6 6 -1 11
2 17 5 13 3 -3 4 -12 1 -19z m-120 -25 c-3 -10 -5 -4 -5 12 0 17 2 24 5 18 2
-7 2 -21 0 -30z m110 -35 c-3 -7 -5 -2 -5 12 0 14 2 19 5 13 2 -7 2 -19 0 -25z
m2073 -798 c0 -5 -4 -10 -10 -10 -5 0 -10 5 -10 10 0 6 5 10 10 10 6 0 10 -4
10 -10z m6 -38 c-7 -7 -46 9 -46 18 0 5 11 4 25 -2 14 -6 23 -13 21 -16z
m-409 -238 c-3 -3 -12 -4 -19 -1 -8 3 -5 6 6 6 11 1 17 -2 13 -5z m579 -112
c-25 -25 -44 -1 -26 33 13 25 13 25 28 4 13 -18 13 -23 -2 -37z m-618 -12 c51
-6 103 -17 116 -25 28 -18 43 -79 26 -100 -9 -11 -17 -8 -40 17 -31 32 -85 47
-228 63 -52 6 -61 9 -51 21 6 8 8 15 3 15 -8 2 47 15 71 18 6 0 52 -4 103 -9z
m428 -17 l-29 -5 40 -18 c44 -19 56 -42 72 -136 5 -27 14 -75 21 -107 15 -75
15 -216 1 -347 -6 -58 -13 -172 -15 -255 -7 -278 -17 -427 -27 -447 -6 -11 -8
-26 -5 -33 3 -8 -1 -20 -8 -27 -7 -8 -18 -23 -25 -36 -6 -12 -18 -22 -26 -22
-8 0 -15 -9 -15 -20 0 -11 -7 -23 -15 -26 -8 -4 -15 -17 -15 -30 0 -15 -6 -24
-15 -24 -8 0 -15 -4 -15 -9 0 -5 -7 -17 -16 -26 -14 -13 -19 -14 -25 -3 -6 9
-9 7 -9 -9 0 -16 -5 -20 -19 -16 -11 3 -22 12 -24 22 -3 11 -5 9 -6 -6 0 -13
4 -23 9 -23 6 0 10 -5 10 -11 0 -6 -8 -8 -19 -4 -21 6 -38 -10 -21 -20 5 -3
10 -15 10 -26 0 -27 -54 -26 -73 1 -8 11 -16 17 -19 14 -4 -3 -9 4 -13 15 -3
12 -13 21 -20 21 -8 0 -12 -6 -9 -14 3 -7 -2 -21 -11 -30 -9 -9 -15 -26 -14
-39 6 -47 -21 -83 -45 -60 -3 4 -14 8 -22 9 -13 2 -14 -5 -9 -37 7 -40 -7 -53
-31 -29 -7 7 -16 -2 -29 -28 -16 -32 -23 -37 -46 -34 -18 3 -34 -3 -47 -16
-11 -11 -24 -17 -28 -14 -4 4 -4 -3 -1 -15 4 -20 2 -22 -21 -17 -15 3 -32 7
-39 9 -6 2 -23 -7 -37 -20 l-25 -23 -10 26 -9 27 -2 -30 c-1 -27 -2 -28 -10
-9 -8 22 -33 37 -60 39 -10 0 -15 11 -15 32 0 17 -3 29 -7 26 -5 -2 -8 7 -8
21 0 16 -6 26 -15 26 -17 0 -15 -23 4 -60 13 -24 13 -24 -5 -9 -10 9 -26 14
-34 11 -13 -4 -13 -3 -2 11 8 9 11 25 8 35 -4 11 -3 27 1 37 6 18 7 18 15 -1
5 -12 6 -1 2 29 -5 45 5 62 22 36 5 -8 10 -6 16 5 5 9 17 16 26 16 19 0 56 76
45 93 -3 6 -31 7 -70 3 -42 -4 -62 -3 -58 3 3 6 -6 13 -20 17 -19 5 -23 10
-16 17 6 6 11 19 11 29 0 18 -9 22 -42 19 -12 -2 -18 5 -18 19 0 17 4 20 21
15 12 -4 27 -1 37 7 9 8 44 23 77 33 33 10 67 23 75 30 18 14 77 36 177 65
l72 21 53 -28 c29 -15 62 -35 72 -45 11 -10 23 -18 28 -18 4 0 9 -12 9 -27 2
-26 2 -27 6 -4 4 18 7 21 13 11 7 -11 14 -8 34 13 30 33 33 53 9 79 -9 10 -17
27 -18 37 -1 19 -19 42 -82 107 -18 19 -33 40 -33 48 0 7 -9 16 -19 19 -15 3
-18 1 -13 -11 4 -12 -3 -10 -26 7 -26 18 -32 19 -32 7 0 -21 -19 -21 -27 0 -5
13 -15 15 -50 9 -73 -11 -86 -14 -96 -24 -7 -7 -17 -7 -29 0 -10 5 -18 7 -18
3 0 -4 -8 0 -18 9 -26 24 -91 26 -107 3 -11 -15 -11 -23 3 -50 9 -17 23 -32
32 -33 8 -1 31 -3 50 -5 19 -2 41 0 48 5 7 6 18 5 27 -3 8 -7 31 -10 52 -8 26
3 42 -1 54 -13 9 -9 25 -22 35 -27 15 -9 17 -14 8 -29 -9 -14 -27 -19 -90 -21
-149 -6 -189 -11 -267 -32 -78 -22 -90 -21 -189 2 -35 9 -48 17 -48 30 0 23
46 35 74 18 14 -9 21 -10 24 -1 3 8 9 8 24 0 36 -19 71 -17 109 7 38 24 61 65
40 72 -6 2 -11 8 -11 13 0 4 7 6 15 3 8 -4 15 -1 15 7 0 7 -3 10 -6 6 -3 -3
-17 -2 -30 3 -15 6 -26 5 -30 -2 -4 -7 -12 -2 -20 13 -8 15 -13 18 -14 9 0 -9
-5 -5 -13 9 -16 31 -31 32 -35 3 -2 -12 -8 -20 -13 -17 -5 4 -9 1 -9 -5 0 -6
-5 -8 -10 -5 -8 5 -8 11 -1 19 8 10 4 16 -16 25 l-26 12 38 39 c33 34 36 41
25 55 -7 9 -23 15 -34 13 -12 -1 -27 1 -34 6 -7 4 -42 10 -77 12 -63 4 -130
-14 -148 -40 -10 -16 -57 39 -57 67 1 34 37 106 75 148 35 39 39 51 49 124 12
92 47 240 64 274 36 69 115 99 155 59 8 -7 39 -52 69 -99 84 -130 129 -160
263 -173 128 -14 339 45 420 116 67 59 78 96 83 293 l5 170 76 37 c42 21 90
37 106 36 l30 -1 -29 -4z m-639 -9 c-3 -3 -12 -4 -19 -1 -8 3 -5 6 6 6 11 1
17 -2 13 -5z m-260 -109 c0 -8 -4 -12 -9 -9 -4 3 -5 -17 -1 -43 6 -47 27 -76
49 -68 7 2 15 -15 19 -43 8 -53 24 -76 72 -99 31 -14 35 -14 52 1 11 10 25 16
33 15 17 -4 116 19 151 34 40 17 33 30 -12 22 -38 -6 -81 6 -81 24 0 10 51 35
65 32 5 -1 14 4 20 11 5 7 16 13 24 13 8 0 16 7 18 15 4 13 3 13 -7 0 -8 -11
-9 -6 -4 25 4 22 7 46 7 53 0 15 3 15 28 2 24 -13 25 -38 2 -57 -16 -13 -15
-13 12 -8 17 3 57 6 90 6 76 1 98 7 91 25 -3 8 -4 14 -2 14 3 0 11 3 19 6 32
12 48 -140 25 -251 -15 -77 -66 -130 -160 -168 -175 -70 -377 -52 -463 40 -36
40 -92 150 -110 219 -20 77 -12 125 30 169 36 39 42 42 42 20z m333 -15 c0 -5
-4 -10 -9 -10 -6 0 -13 5 -16 10 -3 6 1 10 9 10 9 0 16 -4 16 -10z m-495 -99
c7 -23 -10 -71 -26 -71 -17 0 -59 37 -51 45 4 4 -5 5 -20 1 -38 -9 -35 7 5 27
45 22 84 22 92 -2z m-485 -57 c0 -8 -5 -12 -10 -9 -6 4 -8 11 -5 16 9 14 15
11 15 -7z m40 -440 c0 -16 -26 -19 -35 -4 -3 6 -4 14 0 20 8 13 35 1 35 -16z
m-90 -608 c0 -11 -19 -15 -25 -6 -3 5 1 10 9 10 9 0 16 -2 16 -4z m355 -18
c-11 -6 -28 -18 -38 -27 -10 -8 -29 -16 -42 -17 -20 -1 -22 2 -12 17 15 23 45
38 82 38 27 0 28 -1 10 -11z m475 8 c0 -11 -19 -15 -25 -6 -3 5 1 10 9 10 9 0
16 -2 16 -4z m828 -253 c-6 -128 -30 -171 -170 -308 -144 -141 -240 -225 -257
-225 -4 0 -16 -9 -25 -19 -10 -11 -32 -25 -49 -32 -18 -7 -38 -19 -45 -26 -8
-7 -17 -11 -22 -8 -5 3 -24 -3 -42 -13 -28 -16 -36 -17 -46 -6 -11 13 -8 18 9
16 3 -1 27 19 53 44 26 24 51 44 57 44 19 0 249 224 249 243 0 4 51 76 113
160 62 84 124 171 137 195 15 26 27 39 33 33 5 -5 8 -49 5 -98z m-1233 63 c-5
-26 -3 -36 10 -44 16 -9 16 -11 -4 -31 -14 -14 -20 -29 -16 -40 3 -10 8 -35
10 -55 4 -32 2 -38 -21 -46 -14 -6 -24 -15 -22 -21 2 -6 6 -9 10 -7 3 2 15 -5
27 -16 12 -11 27 -16 37 -12 9 3 23 1 30 -5 10 -8 14 -8 14 0 0 6 5 11 10 11
6 0 10 -7 10 -15 0 -10 8 -13 28 -9 15 2 34 0 42 -6 13 -9 13 -11 0 -20 -8 -6
-25 -9 -37 -8 -12 2 -28 -4 -35 -13 -16 -20 -108 -52 -108 -38 0 24 -28 39
-54 29 -20 -7 -24 -6 -19 5 4 11 -2 15 -21 16 -47 3 -51 4 -51 19 0 9 12 17
30 20 17 3 29 10 27 15 -3 8 14 23 36 31 1 1 -1 9 -4 19 -7 16 -8 17 -19 1
-11 -15 -15 -15 -51 1 -22 9 -43 17 -49 18 -5 0 -9 8 -9 18 2 20 -12 23 -20 5
-3 -7 -3 2 0 21 4 23 3 31 -5 27 -7 -5 -11 2 -11 19 0 18 7 28 25 35 15 6 25
17 25 29 0 13 5 18 14 15 8 -3 16 4 20 19 5 20 15 27 53 35 27 5 61 10 76 11
26 1 28 -1 22 -33z m185 24 c0 -5 -4 -10 -10 -10 -5 0 -10 5 -10 10 0 6 5 10
10 10 6 0 10 -4 10 -10z m-590 -136 c0 -8 7 -14 16 -14 8 0 12 -5 9 -10 -3 -6
1 -13 10 -16 8 -4 15 -11 14 -18 -4 -32 3 -56 15 -56 18 0 26 -32 14 -54 -8
-15 -12 -14 -40 6 -18 12 -28 17 -24 10 10 -17 -9 -15 -24 3 -10 13 -9 15 9
15 22 0 29 16 10 22 -5 2 -11 18 -11 36 -1 17 -5 32 -11 32 -5 0 -6 8 -3 17 4
9 1 20 -5 24 -6 4 -8 12 -5 18 9 14 26 5 26 -15z m-43 -39 c-2 -30 2 -56 8
-59 5 -2 7 -7 3 -11 -4 -4 -14 -2 -22 4 -12 10 -13 16 -3 32 9 15 9 21 -1 28
-10 6 -11 31 -3 59 1 1 5 2 10 2 5 0 9 -25 8 -55z m783 -15 c0 -5 -4 -10 -10
-10 -5 0 -10 5 -10 10 0 6 5 10 10 10 6 0 10 -4 10 -10z m-483 -83 c3 -5 -3
-14 -13 -22 -16 -11 -22 -11 -36 2 -10 9 -18 20 -18 25 0 11 60 7 67 -5z
m-186 -162 c34 -33 73 -74 86 -92 14 -18 33 -35 44 -38 10 -4 19 -13 19 -21 0
-8 6 -14 14 -14 7 0 16 -9 19 -21 3 -12 10 -18 16 -14 10 6 36 -43 28 -52 -8
-7 -62 18 -87 41 -14 13 -41 32 -60 42 -19 10 -37 21 -40 24 -3 3 -17 11 -32
17 -16 7 -28 19 -28 28 0 8 -5 15 -11 15 -13 0 -45 74 -52 123 -7 47 0 43 84
-38z m609 25 c0 -5 -2 -10 -4 -10 -3 0 -8 5 -11 10 -3 6 -1 10 4 10 6 0 11 -4
11 -10z m-329 -293 c-5 -5 -17 -5 -28 2 -16 9 -15 10 9 9 16 -2 24 -6 19 -11z
m3693 -4307 c39 -116 48 -138 129 -310 24 -52 48 -111 52 -130 26 -124 90
-278 138 -336 13 -16 43 -64 67 -107 l42 -78 -46 -40 c-92 -81 -89 -225 5
-285 56 -35 63 -54 49 -130 -13 -70 -7 -102 31 -155 19 -27 21 -39 15 -92 -3
-34 -8 -123 -11 -197 -3 -74 -11 -182 -17 -240 -16 -154 -13 -537 6 -724 15
-146 15 -166 1 -237 l-16 -78 27 -66 c33 -83 28 -120 -25 -219 -58 -107 -59
-121 -10 -185 l41 -54 -21 -116 c-11 -64 -25 -159 -32 -211 -15 -123 -42 -251
-78 -370 -45 -144 -62 -217 -55 -234 4 -10 -5 -22 -28 -36 -41 -25 -73 -27
-64 -4 3 9 -6 39 -20 67 -14 29 -37 88 -51 132 -13 44 -29 91 -34 104 -7 17
-6 30 6 47 8 13 19 24 24 24 5 0 14 13 21 29 14 35 6 91 -20 141 l-18 34 33
41 c18 22 54 81 80 130 26 50 52 95 56 101 5 6 25 55 46 110 36 98 37 101 37
244 -1 155 -18 286 -59 449 -14 53 -33 146 -44 206 -27 154 -76 365 -192 835
-173 698 -188 798 -171 1099 6 108 14 252 17 321 22 533 31 659 44 644 4 -5
25 -61 45 -124z m-2530 -4335 c4 -28 10 -56 14 -62 9 -13 208 -22 340 -14 93
5 118 2 93 -14 -26 -15 -180 -25 -309 -19 -78 4 -140 9 -137 12 2 3 -1 12 -7
20 -9 10 -13 69 -14 196 -2 178 -2 179 6 56 4 -69 10 -148 14 -175z m-85 96
c9 -161 15 -185 49 -194 9 -2 4 -3 -12 -1 -36 5 -52 26 -65 87 -12 52 -15 238
-4 276 12 47 23 -6 32 -168z m536 149 c4 -6 -27 -10 -85 -10 -58 0 -89 4 -85
10 3 6 42 10 85 10 43 0 82 -4 85 -10z m2031 -183 c-3 -7 -9 -20 -12 -29 -4
-10 -11 -18 -18 -18 -6 0 -17 -14 -25 -30 -9 -22 -18 -29 -30 -25 -12 3 -22
-3 -31 -20 -7 -14 -17 -25 -22 -25 -4 0 -19 -18 -33 -40 -14 -23 -34 -44 -43
-47 -9 -4 -25 -17 -34 -29 -10 -12 -31 -24 -48 -27 -30 -6 -129 -65 -157 -93
-8 -8 -22 -14 -32 -14 -10 0 -28 -11 -41 -25 -13 -14 -29 -25 -35 -25 -6 0
-21 -9 -33 -20 -12 -12 -22 -16 -22 -10 0 5 -4 10 -10 10 -5 0 -10 -7 -10 -15
0 -9 -11 -20 -25 -25 l-25 -10 20 -20 c15 -15 27 -19 43 -14 12 4 37 8 55 9
19 1 37 7 41 14 4 7 12 11 17 10 23 -7 117 26 174 60 8 5 33 17 55 27 22 9 44
23 48 30 4 8 14 14 20 14 7 0 27 16 46 35 18 19 37 33 42 29 5 -3 9 1 9 7 0
13 69 78 83 79 4 0 16 9 27 20 30 30 44 24 15 -7 -14 -15 -25 -32 -25 -37 0
-5 -11 -24 -25 -42 -14 -18 -25 -39 -25 -47 0 -7 -10 -23 -22 -34 -13 -11 -42
-41 -66 -67 -23 -25 -49 -46 -57 -46 -8 0 -19 -9 -26 -21 -7 -14 -17 -19 -30
-16 -12 3 -19 0 -19 -9 0 -7 -13 -23 -30 -36 -21 -15 -30 -30 -30 -50 0 -34 5
-35 64 -3 26 14 53 25 61 25 7 0 15 3 17 8 2 4 25 25 53 47 55 44 84 75 85 89
0 13 41 56 53 56 5 0 7 -24 4 -56 -4 -43 -12 -63 -33 -85 -15 -16 -28 -37 -29
-48 -1 -20 -111 -121 -131 -121 -6 0 -17 -15 -25 -32 -7 -18 -24 -44 -37 -58
l-25 -25 5 38 c4 33 2 37 -20 37 -13 0 -21 -3 -19 -7 3 -5 -22 -9 -55 -9 -33
-1 -63 -6 -67 -11 -9 -14 -89 -25 -96 -13 -3 5 -19 10 -36 10 -25 0 -29 -4
-29 -29 0 -16 6 -32 13 -35 6 -3 -1 -3 -18 0 -27 5 -28 4 -12 -9 21 -18 22
-43 1 -51 -8 -3 -12 -10 -9 -16 4 -6 -8 -10 -29 -10 -42 0 -49 9 -40 56 4 22
9 31 14 24 4 -7 13 -9 20 -5 10 6 10 9 0 15 -21 13 -29 87 -12 112 8 13 16 24
17 25 1 2 15 -1 32 -6 27 -8 32 -6 42 15 6 13 16 24 23 24 10 0 10 -2 0 -9
-11 -6 -10 -10 1 -19 11 -9 17 -3 34 33 19 42 19 44 1 48 -10 3 -22 -2 -28
-11 -9 -16 -11 -16 -21 1 -13 22 -29 13 -29 -16 0 -19 -1 -20 -13 -3 -13 17
-60 21 -147 12 -38 -5 -139 -21 -155 -26 -5 -2 -18 0 -27 4 -10 5 -26 5 -35 0
-10 -4 -24 -6 -32 -5 -8 1 -17 -2 -21 -9 -6 -10 -36 -6 -107 15 -17 6 -23 3
-23 -9 0 -9 -4 -16 -10 -16 -5 0 -7 6 -4 13 3 8 -2 20 -11 27 -13 11 -18 11
-30 -1 -13 -12 -12 -23 6 -82 17 -58 24 -68 47 -73 70 -15 131 -38 136 -50 8
-21 26 -17 26 6 0 13 5 18 15 13 9 -3 14 -8 11 -11 -11 -10 15 -42 34 -42 16
0 20 -7 20 -30 0 -27 -3 -30 -30 -30 -29 0 -180 37 -189 46 -2 2 11 9 30 16
l34 12 -50 13 c-70 18 -115 16 -131 -4 -12 -17 -15 -16 -38 10 -14 16 -31 27
-38 24 -7 -2 -21 2 -30 11 -14 11 -21 12 -32 3 -11 -10 -17 -8 -28 7 -7 10
-23 24 -35 31 -13 6 -23 18 -23 26 0 8 -5 26 -12 40 -10 23 -13 24 -28 10 -15
-14 -18 -13 -30 10 -11 20 -21 25 -52 25 -21 0 -38 3 -38 8 0 4 -17 6 -37 6
-21 -1 -45 4 -53 11 -8 7 -28 15 -45 17 -16 1 -29 8 -28 14 1 5 -18 16 -43 23
-33 10 -44 18 -44 34 0 11 -7 25 -16 31 -11 8 -13 20 -9 39 7 28 35 38 35 12
0 -8 7 -15 15 -15 18 0 57 -20 67 -35 4 -6 8 -2 8 8 0 23 17 22 30 -2 8 -16 6
-22 -7 -30 -10 -5 -15 -13 -11 -16 4 -4 18 4 32 18 14 14 22 28 18 32 -4 4 4
2 18 -3 14 -6 58 -17 97 -26 74 -17 117 -13 141 10 28 28 152 46 152 22 0 -6
7 -4 18 6 12 10 29 14 48 11 48 -8 174 -12 174 -4 0 3 19 6 43 6 42 0 111 16
154 36 13 6 38 10 55 10 19 0 42 8 54 18 11 10 42 22 70 25 27 4 60 14 74 22
14 9 27 17 30 17 15 2 77 40 86 53 32 43 -49 52 -251 28 -99 -12 -112 -12
-129 3 -14 12 -20 13 -23 4 -3 -7 -9 -13 -14 -13 -4 0 -6 7 -3 15 4 9 0 15 -9
15 -8 0 -17 -9 -20 -20 -3 -11 -10 -20 -17 -20 -6 0 -9 4 -6 8 2 4 1 14 -5 22
-6 10 -9 11 -9 3 0 -7 -9 -13 -20 -13 -11 0 -20 5 -20 10 0 6 -9 10 -20 10
-11 0 -20 -6 -20 -13 0 -17 -75 -10 -91 9 -7 8 -9 17 -6 20 6 6 149 8 187 3
20 -3 26 1 28 19 4 25 12 28 31 10 7 -8 11 -8 9 -2 -3 12 54 64 71 64 6 0 11
3 11 8 0 4 14 13 31 21 25 11 35 11 55 0 22 -11 27 -10 45 10 15 16 24 19 29
11 5 -8 9 -7 14 5 4 12 13 15 27 12 12 -3 46 -1 77 5 32 5 95 11 142 13 47 2
114 11 150 20 36 9 79 19 95 22 17 3 33 11 37 17 9 16 151 18 144 3z m118 -64
c-12 -36 -48 -104 -61 -115 -23 -19 -26 -1 -4 23 12 13 21 27 21 32 0 11 39
77 46 77 2 0 1 -8 -2 -17z m-1036 -31 c2 -7 -3 -12 -12 -12 -9 0 -16 7 -16 16
0 17 22 14 28 -4z m-1052 -197 c7 -48 11 -50 63 -35 26 7 42 6 63 -4 15 -8 37
-12 49 -9 18 5 21 3 16 -11 -4 -10 -7 -24 -7 -32 0 -8 -4 -14 -10 -14 -5 0
-10 7 -10 15 0 8 -5 15 -11 15 -6 0 -8 -8 -5 -18 5 -14 -2 -22 -26 -34 -40
-19 -68 -10 -87 26 -8 14 -18 26 -23 26 -13 0 -9 -40 5 -41 10 0 10 -2 0 -6
-9 -3 -13 -29 -14 -76 l0 -72 -41 85 c-51 106 -54 150 -15 203 16 20 33 35 37
32 5 -3 12 -26 16 -50z m724 35 c0 -5 -4 -10 -10 -10 -5 0 -10 5 -10 10 0 6 5
10 10 10 6 0 10 -4 10 -10z m-1010 -45 c8 -9 10 -29 7 -50 -5 -29 0 -41 32
-82 38 -48 76 -137 65 -154 -3 -5 2 -16 11 -25 12 -12 13 -20 6 -27 -15 -15
-14 -44 2 -50 7 -3 2 -12 -15 -26 -16 -13 -28 -28 -28 -35 0 -7 -9 -23 -20
-36 -11 -13 -20 -26 -20 -29 0 -10 33 -54 63 -86 21 -22 28 -37 24 -58 -2 -15
0 -30 4 -32 9 -6 0 -44 -18 -71 -12 -19 -12 -22 3 -28 13 -5 15 -16 11 -59 -8
-90 -33 -161 -45 -128 -2 7 -14 23 -25 34 -14 14 -22 36 -23 65 -2 25 -11 53
-21 64 -18 20 -21 30 -28 92 -3 22 -10 43 -17 47 -9 6 -8 11 2 24 11 13 10 18
-6 30 -17 12 -19 26 -18 124 1 61 -2 111 -6 111 -5 0 -10 38 -12 85 -2 47 0
85 5 85 12 0 8 21 -8 36 -8 9 -15 24 -15 34 0 10 -3 21 -7 23 -15 10 -9 99 7
107 8 4 24 12 35 18 28 15 41 14 55 -3z m1000 1 c0 -3 -4 -8 -10 -11 -5 -3
-10 -1 -10 4 0 6 5 11 10 11 6 0 10 -2 10 -4z m-244 -63 c-11 -11 -19 6 -11
24 8 17 8 17 12 0 3 -10 2 -21 -1 -24z m-173 6 c14 -16 16 -24 6 -35 -16 -20
-24 -18 -38 12 -19 43 2 59 32 23z m137 1 c0 -5 -12 -10 -26 -10 -14 0 -23 4
-19 10 3 6 15 10 26 10 10 0 19 -4 19 -10z m-204 -27 c20 -26 17 -35 -6 -21
-11 7 -20 18 -20 25 0 18 10 16 26 -4z m1989 -33 c3 -5 2 -10 -4 -10 -5 0 -13
5 -16 10 -3 6 -2 10 4 10 5 0 13 -4 16 -10z m-3955 -184 c0 -2 -7 -6 -15 -10
-8 -3 -15 -1 -15 4 0 6 7 10 15 10 8 0 15 -2 15 -4z m120 -71 c10 -12 10 -15
0 -15 -8 0 -10 -8 -7 -22 l6 -23 -20 24 c-10 13 -19 29 -19 37 0 19 24 18 40
-1z m35 -5 c3 -5 1 -10 -4 -10 -6 0 -11 5 -11 10 0 6 2 10 4 10 3 0 8 -4 11
-10z m3951 -119 c19 -20 32 -41 29 -48 -2 -7 2 -10 9 -7 10 4 15 -6 18 -35 3
-31 0 -41 -13 -44 -10 -3 -19 2 -22 12 -20 65 -49 126 -68 142 -12 10 -17 19
-11 19 7 0 13 12 13 28 l2 27 4 -29 c3 -16 20 -45 39 -65z m-3959 37 c-3 -7
-5 -2 -5 12 0 14 2 19 5 13 2 -7 2 -19 0 -25z m58 12 c4 -11 11 -18 16 -14 6
3 25 3 43 0 31 -6 34 -9 34 -46 1 -28 -3 -40 -14 -40 -8 0 -14 5 -14 10 0 6
-13 10 -29 10 -25 0 -30 4 -33 28 -2 20 -8 27 -24 26 -19 0 -21 2 -11 23 13
28 24 29 32 3z m3807 -18 c-7 -2 -10 -13 -6 -26 4 -16 0 -25 -10 -29 -25 -10
-19 -27 9 -27 15 0 25 -6 25 -14 0 -7 -11 -21 -25 -30 -24 -16 -25 -16 -25 4
0 11 -5 20 -11 20 -7 0 -9 -12 -7 -30 6 -37 -2 -43 -45 -35 -30 6 -33 10 -30
33 11 72 11 72 53 72 43 0 50 12 24 38 -15 14 -15 17 0 28 9 6 27 9 39 6 12
-3 16 -7 9 -10z m-1075 -34 c-3 -7 -5 -2 -5 12 0 14 2 19 5 13 2 -7 2 -19 0
-25z m46 5 c-7 -2 -19 -2 -25 0 -7 3 -2 5 12 5 14 0 19 -2 13 -5z m-2601 -83
c-4 -41 4 -50 26 -28 17 17 24 5 30 -52 2 -27 8 -50 13 -50 5 0 9 -7 9 -15 0
-8 -5 -15 -10 -15 -6 0 -13 7 -16 15 -4 8 -12 15 -20 15 -10 0 -14 12 -14 40
0 36 -2 40 -25 40 -22 0 -25 4 -25 39 0 29 5 41 18 44 9 3 17 5 17 6 0 0 -1
-17 -3 -39z m3021 33 c-7 -2 -19 -2 -25 0 -7 3 -2 5 12 5 14 0 19 -2 13 -5z
m-443 -74 c0 -5 -4 -9 -10 -9 -5 0 -10 7 -10 16 0 8 5 12 10 9 6 -3 10 -10 10
-16z m1116 -6 c3 -10 12 -31 20 -47 8 -16 13 -31 10 -33 -10 -10 -46 24 -46
44 0 12 -3 28 -6 37 -3 9 -1 16 5 16 7 0 14 -8 17 -17z m-961 -2 c3 -5 1 -12
-5 -16 -5 -3 -10 1 -10 9 0 18 6 21 15 7z m-2635 -5 c0 -3 -4 -8 -10 -11 -5
-3 -10 -1 -10 4 0 6 5 11 10 11 6 0 10 -2 10 -4z m3364 -11 c3 -9 0 -15 -9
-15 -8 0 -15 7 -15 15 0 8 4 15 9 15 5 0 11 -7 15 -15z m195 -46 c-12 -22 -29
-16 -29 10 0 25 11 33 26 20 10 -8 11 -16 3 -30z m-3543 -4 c18 -14 18 -14 -8
-15 -18 0 -28 5 -28 15 0 19 11 19 36 0z m3744 -44 c0 -16 6 -36 14 -44 11
-11 12 -17 3 -26 -17 -17 -31 -13 -16 6 13 15 11 16 -11 10 -22 -5 -25 -3 -27
20 0 15 -8 32 -17 39 -24 17 -19 24 19 24 32 0 35 -2 35 -29z m-124 3 c40 -10
29 -34 -16 -34 -36 0 -40 2 -40 26 0 20 4 25 16 20 9 -3 27 -9 40 -12z m54
-95 c0 -6 -7 -17 -15 -25 -13 -14 -15 -13 -15 9 0 13 3 27 6 30 9 8 24 -1 24
-14z m0 -76 c0 -13 -3 -13 -15 -3 -8 7 -12 16 -9 21 8 13 24 1 24 -18z m-2673
-75 c-3 -7 -5 -2 -5 12 0 14 2 19 5 13 2 -7 2 -19 0 -25z m99 12 c0 -12 -4
-16 -9 -11 -5 5 -6 14 -3 20 10 15 12 14 12 -9z m19 -77 c0 -9 17 -25 38 -36
l39 -20 -30 -13 c-17 -7 -38 -26 -46 -42 -14 -27 -20 -30 -55 -23 -2 1 2 8 9
16 9 11 9 15 1 15 -7 0 -9 5 -5 12 4 7 3 8 -4 4 -7 -4 -12 -2 -12 5 0 8 -5 7
-17 -2 -10 -8 -14 -9 -10 -2 4 7 0 16 -9 21 -15 9 -15 11 5 22 13 7 20 17 17
26 -3 8 1 14 9 14 9 0 12 -6 8 -17 -6 -15 -5 -16 9 -3 14 14 14 16 -6 28 -13
9 -15 11 -4 8 10 -3 24 1 30 9 15 15 33 4 33 -22z m595 17 c32 -17 43 -48 30
-80 -16 -39 -53 -54 -89 -35 -48 24 -54 63 -16 100 26 27 46 31 75 15z m-685
-40 c3 -5 2 -10 -4 -10 -5 0 -13 5 -16 10 -3 6 -2 10 4 10 5 0 13 -4 16 -10z
m-1135 -48 c46 -23 83 -92 77 -145 -6 -47 -29 -82 -68 -106 l-30 -18 86 -105
c47 -58 85 -108 85 -112 0 -3 -28 -6 -63 -6 l-63 0 -84 105 c-47 57 -91 104
-97 105 -10 0 -13 -27 -13 -105 l0 -105 -55 0 -55 0 0 255 0 255 123 0 c96 0
129 -4 157 -18z m1152 -39 c-6 -2 -9 -10 -6 -15 4 -7 2 -8 -5 -4 -13 9 -5 26
12 25 9 0 8 -2 -1 -6z m-756 -102 c56 -25 87 -71 92 -138 5 -61 21 -55 -145
-54 -62 0 -114 -3 -117 -8 -9 -15 25 -51 56 -59 42 -11 82 -4 106 18 19 18 21
18 56 -7 20 -15 36 -30 36 -34 0 -13 -62 -55 -99 -68 -112 -37 -227 23 -252
133 -35 158 120 284 267 217z m249 -2 c-4 -5 -2 -9 4 -9 5 0 11 6 14 13 2 8
26 12 71 12 62 0 70 -3 89 -27 l22 -27 28 24 c78 68 199 24 216 -80 3 -20 5
-86 3 -146 l-3 -109 -50 0 -49 0 0 120 c0 107 -2 122 -20 140 -21 21 -29 23
-55 14 -33 -13 -45 -59 -45 -169 l0 -105 -49 0 -48 0 -7 61 c-3 34 -6 86 -6
116 0 69 -13 93 -49 93 -53 0 -66 -29 -69 -156 l-4 -114 -49 0 -49 0 0 179 0
180 48 3 c53 3 65 1 57 -13z m581 11 l34 0 0 -180 0 -180 -50 0 -49 0 -3 181
c-2 99 -1 183 1 185 3 3 11 2 19 -1 7 -3 29 -5 48 -5z m373 -3 c63 -32 83
-101 74 -254 l-6 -103 -49 0 -48 0 0 113 c0 125 -11 157 -56 157 -64 0 -84
-43 -84 -182 l0 -88 -50 0 -50 0 0 180 0 180 55 0 c48 0 54 -2 48 -17 -6 -17
-5 -17 13 -2 10 9 26 19 34 22 27 10 95 7 119 -6z m241 -177 l0 -180 -50 0
-50 0 0 180 0 180 50 0 50 0 0 -180z m-1842 -292 c21 -18 -2 -30 -33 -18 -39
15 -75 -9 -75 -50 0 -53 81 -83 88 -32 3 17 -2 22 -18 22 -35 0 -17 23 18 24
33 1 33 1 30 -43 -3 -39 -7 -46 -31 -54 -61 -20 -117 19 -117 81 0 38 23 71
60 85 19 7 61 -1 78 -15z m962 -63 c0 -74 -2 -85 -17 -85 -10 0 -28 -3 -40 -6
-27 -7 -63 27 -63 61 0 36 36 68 66 61 21 -6 24 -3 24 24 0 20 5 30 15 30 12
0 15 -16 15 -85z m278 73 c-7 -19 -38 -22 -38 -4 0 10 9 16 21 16 12 0 19 -5
17 -12z m132 -19 c0 -26 3 -29 20 -24 10 3 28 1 40 -5 16 -9 20 -21 20 -66 0
-66 -23 -72 -28 -8 -2 21 -7 43 -12 48 -17 17 -40 -15 -40 -56 0 -27 -4 -38
-12 -36 -9 3 -14 33 -16 91 -2 73 0 87 13 87 10 0 15 -10 15 -31z m264 -61
c19 -42 32 -79 29 -82 -12 -12 -24 -6 -35 19 -9 19 -19 25 -45 25 -26 0 -36
-6 -45 -25 -11 -23 -38 -35 -38 -16 0 12 60 143 73 159 14 17 20 9 61 -80z
m76 -3 c0 -69 -3 -85 -15 -85 -12 0 -15 16 -15 85 0 69 3 85 15 85 12 0 15
-16 15 -85z m-1037 55 c3 -11 12 -20 21 -20 9 0 16 -4 16 -10 0 -5 -6 -10 -14
-10 -8 0 -16 -5 -18 -12 -8 -22 4 -58 18 -58 19 0 18 -19 -3 -27 -22 -9 -53
30 -46 58 4 15 0 27 -13 36 -18 13 -18 15 -1 24 9 6 17 17 17 24 0 22 17 18
23 -5z m627 -1 c0 -15 5 -19 15 -15 9 3 15 0 15 -9 0 -8 -7 -15 -15 -15 -10 0
-15 -11 -15 -35 0 -24 5 -35 15 -35 20 0 19 -19 0 -26 -25 -10 -45 16 -45 57
0 28 -4 39 -15 39 -8 0 -15 5 -15 10 0 6 7 13 15 16 8 4 15 12 15 20 0 8 7 14
15 14 9 0 15 -9 15 -21z m-1175 -34 c36 -35 31 -45 -21 -45 -32 0 -44 -4 -41
-12 2 -8 19 -12 41 -11 44 3 45 -16 3 -30 -21 -7 -34 -5 -52 7 -33 22 -35 78
-3 100 31 22 45 20 73 -9z m136 5 c12 -19 7 -105 -6 -105 -5 0 -12 20 -15 45
-5 42 -8 46 -40 42 -5 -1 -10 -20 -10 -42 0 -29 -4 -40 -15 -40 -11 0 -15 13
-15 53 0 30 2 56 4 58 12 11 88 2 97 -11z m117 4 c12 -8 22 -24 22 -35 0 -16
-7 -19 -46 -19 -41 0 -45 -2 -33 -16 9 -11 22 -14 46 -9 37 7 45 -8 14 -25
-31 -16 -50 -12 -77 15 -27 27 -26 54 4 88 19 21 41 22 70 1z m109 2 c4 -3 -3
-13 -15 -21 -13 -10 -22 -28 -24 -52 -2 -20 -9 -38 -15 -41 -10 -3 -13 13 -13
60 l0 63 30 -1 c17 0 33 -4 37 -8z m106 4 c14 0 17 -10 17 -58 l0 -59 -44 2
c-55 1 -76 18 -76 61 0 38 33 68 65 60 11 -3 28 -6 38 -6z m215 -6 c12 -8 22
-24 22 -35 0 -16 -7 -19 -45 -19 -25 0 -45 -4 -45 -9 0 -14 29 -22 56 -15 30
8 32 -11 3 -26 -15 -9 -28 -9 -49 0 -47 19 -48 82 -2 109 24 14 34 13 60 -5z
m377 -22 c-3 -14 -13 -41 -20 -59 -17 -40 -41 -35 -51 10 l-7 32 -14 -32 c-18
-46 -38 -41 -57 14 -19 57 -20 63 -2 63 7 0 18 -15 23 -32 l10 -33 13 33 c15
40 36 41 45 2 7 -31 25 -42 25 -14 0 24 20 55 31 48 6 -3 8 -18 4 -32z m45
-33 c0 -44 -3 -60 -12 -57 -14 5 -23 90 -14 115 12 31 26 -1 26 -58z"/>
<path d="M4333 12191 c-18 -12 -33 -22 -33 -24 0 -2 16 -3 35 -3 40 0 54 -9
37 -26 -7 -7 -12 -18 -12 -25 0 -24 41 -14 72 18 30 30 31 31 12 49 -30 30
-74 34 -111 11z"/>
<path d="M4880 11622 c0 -5 7 -13 16 -16 10 -4 14 -1 12 6 -5 15 -28 23 -28
10z"/>
<path d="M4032 11620 c0 -14 2 -19 5 -12 2 6 2 18 0 25 -3 6 -5 1 -5 -13z"/>
<path d="M6162 1785 c0 -16 2 -22 5 -12 2 9 2 23 0 30 -3 6 -5 -1 -5 -18z"/>
<path d="M6025 1791 c-6 -11 9 -23 19 -14 9 9 7 23 -3 23 -6 0 -12 -4 -16 -9z"/>
<path d="M6203 1764 c-6 -13 -7 -24 -3 -24 9 0 25 39 18 45 -2 2 -8 -7 -15
-21z"/>
<path d="M6243 1720 c0 -25 2 -35 4 -22 2 12 2 32 0 45 -2 12 -4 2 -4 -23z"/>
<path d="M6312 1730 c-3 -56 7 -80 33 -80 13 0 25 -7 29 -15 3 -8 10 -15 16
-15 5 0 10 7 10 15 0 8 -6 15 -14 15 -8 0 -16 7 -20 15 -3 8 -14 15 -25 15
-16 0 -21 8 -24 43 -3 38 -4 39 -5 7z"/>
<path d="M6590 1719 c0 -24 23 -21 28 4 2 10 -3 17 -12 17 -10 0 -16 -9 -16
-21z"/>
<path d="M6170 1610 c0 -5 9 -10 21 -10 11 0 17 5 14 10 -3 6 -13 10 -21 10
-8 0 -14 -4 -14 -10z"/>
<path d="M6365 1590 c3 -5 8 -10 11 -10 2 0 4 5 4 10 0 6 -5 10 -11 10 -5 0
-7 -4 -4 -10z"/>
<path d="M6365 1530 c-3 -5 -1 -10 4 -10 6 0 11 5 11 10 0 6 -2 10 -4 10 -3 0
-8 -4 -11 -10z"/>
<path d="M6960 1450 c0 -5 7 -10 16 -10 8 0 12 5 9 10 -3 6 -10 10 -16 10 -5
0 -9 -4 -9 -10z"/>
<path d="M5431 1604 c0 -11 3 -14 6 -6 3 7 2 16 -1 19 -3 4 -6 -2 -5 -13z"/>
<path d="M4160 820 l0 -50 58 0 c65 0 82 11 82 52 0 35 -24 48 -89 48 l-51 0
0 -50z"/>
<path d="M4579 721 c-13 -11 -21 -22 -18 -26 4 -3 42 -5 85 -3 l79 3 -22 23
c-29 28 -91 30 -124 3z"/>
<path d="M5207 284 c-15 -16 -7 -53 14 -59 27 -9 42 6 37 36 -3 24 -36 38 -51
23z"/>
<path d="M5901 291 c-10 -18 -9 -21 9 -21 22 0 25 7 11 29 -7 11 -11 9 -20 -8z"/>
<path d="M4395 280 c-4 -6 5 -10 19 -10 14 0 26 5 26 10 0 6 -9 10 -19 10 -11
0 -23 -4 -26 -10z"/>
<path d="M4655 280 c-4 -6 5 -10 20 -10 15 0 24 4 20 10 -3 6 -12 10 -20 10
-8 0 -17 -4 -20 -10z"/>
<path d="M4861 276 c-20 -24 -9 -51 19 -51 21 0 25 5 25 30 0 34 -24 45 -44
21z"/>
<path d="M5075 280 c-4 -6 7 -10 25 -10 18 0 29 4 25 10 -3 6 -15 10 -25 10
-10 0 -22 -4 -25 -10z"/>
<path d="M10160 15025 c0 -11 11 -15 40 -15 29 0 40 4 40 15 0 11 -11 15 -40
15 -29 0 -40 -4 -40 -15z"/>
<path d="M10160 14975 c0 -8 -7 -15 -15 -15 -11 0 -15 -11 -15 -36 0 -19 7
-42 15 -50 8 -9 15 -11 15 -5 0 6 18 11 40 11 l40 0 0 55 0 55 -40 0 c-29 0
-40 -4 -40 -15z"/>
<path d="M3520 13570 c0 -5 5 -10 10 -10 6 0 10 5 10 10 0 6 -4 10 -10 10 -5
0 -10 -4 -10 -10z"/>
<path d="M5533 13149 c-15 -15 -17 -65 -4 -73 5 -4 19 -26 31 -51 12 -25 26
-45 30 -45 5 0 13 -12 19 -27 9 -24 9 -22 5 17 -10 83 -25 136 -47 164 -18 22
-24 25 -34 15z"/>
<path d="M5426 12808 c9 -33 24 -48 45 -48 26 0 47 -70 31 -106 -14 -29 -15
-34 -4 -34 4 0 15 14 24 30 15 27 16 33 2 62 -38 83 -118 161 -98 96z"/>
<path d="M2894 12686 c-3 -19 -3 -49 1 -68 10 -46 67 -158 77 -152 4 3 8 47 8
97 0 71 -4 98 -17 117 -35 51 -60 53 -69 6z"/>
<path d="M3074 12502 c-19 -12 -64 -113 -64 -142 0 -63 67 -166 101 -155 14 5
24 -3 39 -27 34 -55 45 -103 32 -144 -13 -44 -1 -77 37 -94 l26 -12 -22 -11
c-13 -5 -23 -14 -23 -19 0 -12 14 -10 28 4 9 9 15 8 26 -8 13 -17 14 -14 5 26
-27 126 -33 148 -50 181 -29 59 -64 167 -94 289 -15 63 -28 116 -29 117 -1 1
-6 -1 -12 -5z"/>
<path d="M3643 12383 c9 -2 23 -2 30 0 6 3 -1 5 -18 5 -16 0 -22 -2 -12 -5z"/>
<path d="M8543 1040 c-12 -11 -19 -27 -17 -37 3 -12 -3 -21 -17 -28 -13 -5
-27 -23 -31 -40 -8 -31 -2 -85 10 -85 11 0 37 19 38 27 2 26 17 63 25 63 5 0
9 13 9 28 0 16 3 32 7 35 9 10 13 57 4 57 -4 0 -17 -9 -28 -20z"/>
<path d="M8436 901 c-4 -7 -5 -15 -2 -18 9 -9 19 4 14 18 -4 11 -6 11 -12 0z"/>
<path d="M1776 655 c4 -8 8 -15 10 -15 2 0 4 7 4 15 0 8 -4 15 -10 15 -5 0 -7
-7 -4 -15z"/>
<path d="M10123 263 c-74 -7 -47 -23 37 -23 64 0 80 3 80 15 0 15 -19 17 -117
8z"/>
<path d="M10131 128 c0 -28 2 -30 9 -13 12 28 12 45 0 45 -5 0 -10 -15 -9 -32z"/>
<path d="M10000 115 c0 -11 11 -15 40 -15 29 0 40 4 40 15 0 11 -11 15 -40 15
-29 0 -40 -4 -40 -15z"/>
<path d="M10163 40 c0 -25 2 -35 4 -22 2 12 2 32 0 45 -2 12 -4 2 -4 -23z"/>
<path d="M10210 40 c0 -29 4 -40 15 -40 11 0 15 11 15 40 0 29 -4 40 -15 40
-11 0 -15 -11 -15 -40z"/>
</g>
</svg>
